<svg width="37" height="34" viewBox="0 0 37 34" fill="none" xmlns="http://www.w3.org/2000/svg">
<path d="M32.6684 25.2749C33.624 25.2749 34.4295 25.6082 35.0851 26.2749C35.7407 26.9416 36.0629 27.7193 36.0518 28.6082L22.6684 33.6082L11.0018 30.2749V15.2749H14.2518L26.3684 19.7582C27.2351 20.1027 27.6684 20.7249 27.6684 21.6249C27.6684 22.1471 27.4795 22.6027 27.1018 22.9916C26.724 23.3805 26.2462 23.586 25.6684 23.6082H21.0018L18.0851 22.4916L17.5351 24.0582L21.0018 25.2749H32.6684ZM26.0018 2.3249C27.1795 0.958236 28.6795 0.274902 30.5018 0.274902C32.0129 0.274902 33.2907 0.830458 34.3351 1.94157C35.3795 3.05268 35.9351 4.33046 36.0018 5.7749C36.0018 6.91935 35.4462 8.28601 34.3351 9.8749C33.224 11.4638 32.1295 12.7916 31.0518 13.8582C29.974 14.9249 28.2907 16.5082 26.0018 18.6082C23.6907 16.5082 21.9907 14.9249 20.9018 13.8582C19.8129 12.7916 18.7184 11.4638 17.6184 9.8749C16.5184 8.28601 15.9795 6.91935 16.0018 5.7749C16.0018 4.26379 16.5407 2.98601 17.6184 1.94157C18.6962 0.897125 19.9962 0.341569 21.5184 0.274902C23.2962 0.274902 24.7907 0.958236 26.0018 2.3249ZM0.975098 15.2749H7.66843V33.6082H0.975098V15.2749Z" fill="#3A3A3A"/>
</svg>
