<svg width="50" height="46" viewBox="0 0 50 46" fill="none" xmlns="http://www.w3.org/2000/svg">
<g clip-path="url(#clip0_7_343)">
<path d="M48.841 0L27.3865 15.5785L31.3762 6.39764L48.841 0Z" fill="#E17726"/>
<path d="M1.20917 0.0184326L18.6273 6.39882L22.4156 15.7L1.20917 0.0184326ZM40.207 33.1312L49.6896 33.3083L46.3756 44.3563L34.8047 41.23L40.207 33.1312ZM9.79277 33.1312L15.175 41.23L3.62363 44.3565L0.329681 33.3083L9.79277 33.1312Z" fill="#E27625"/>
<path d="M21.9006 13.3308L22.2881 25.6133L10.6922 25.0957L13.9906 20.2124L14.0324 20.1654L21.9006 13.3308ZM27.9793 13.1937L35.9676 20.1658L36.009 20.2126L39.3074 25.0958L27.7141 25.6133L27.9793 13.1937ZM15.5146 33.1667L21.8463 38.008L14.4912 41.4927L15.5146 33.1667ZM34.4865 33.166L35.4887 41.4929L28.1541 38.0077L34.4865 33.166Z" fill="#E27625"/>
<path d="M28.316 37.5518L35.7588 41.0884L28.8356 44.3172L28.9074 42.1832L28.316 37.5518ZM21.6818 37.5533L21.1137 42.1483L21.1604 44.3147L14.2209 41.0884L21.6818 37.5533Z" fill="#D5BFB2"/>
<path d="M19.5326 27.2164L21.4775 31.2276L14.8559 29.324L19.5326 27.2164ZM30.4672 27.2168L35.166 29.324L28.5227 31.2271L30.4672 27.2168Z" fill="#233447"/>
<path d="M16.0207 33.1258L14.9504 41.7585L9.21347 33.3146L16.0207 33.1258ZM33.9797 33.126L40.7871 33.3146L35.0287 41.7588L33.9797 33.126ZM39.475 24.6075L34.5209 29.5623L30.7012 27.8494L28.8725 31.6222L27.6736 25.1344L39.475 24.6075ZM10.5225 24.6075L22.3262 25.1344L21.1271 31.6222L19.298 27.85L15.4986 29.5625L10.5225 24.6075Z" fill="#CC6228"/>
<path d="M10.1887 23.5908L15.7938 29.1723L15.9879 34.6825L10.1887 23.5908ZM39.817 23.5808L34.0072 34.6923L34.226 29.1723L39.817 23.5808ZM22.0522 23.9308L22.2777 25.3242L22.8352 28.7955L22.4768 39.4569L20.7824 30.8923L20.7818 30.8038L22.0522 23.9308ZM27.9449 23.9114L29.2186 30.8038L29.218 30.8923L27.5193 39.4784L27.4522 37.3308L27.1871 28.7322L27.9449 23.9114Z" fill="#E27525"/>
<path d="M34.7242 28.9504L34.5346 33.7379L28.6217 38.2587L27.4264 37.43L28.7662 30.6574L34.7242 28.9504ZM15.2963 28.9504L21.2336 30.6574L22.5734 37.43L21.3781 38.2587L15.465 33.7375L15.2963 28.9504Z" fill="#F5841F"/>
<path d="M13.0894 40.0311L20.6543 43.5486L20.6223 42.0465L21.2553 41.5012H28.7424L29.3982 42.0446L29.3498 43.5455L36.8668 40.0399L33.209 43.0062L28.7861 45.9872H21.1945L16.7746 42.9939L13.0894 40.0311Z" fill="#C0AC9D"/>
<path d="M27.7742 37.0835L28.8437 37.8251L29.4705 42.7325L28.5635 41.981H21.4393L20.5494 42.7476L21.1557 37.8254L22.2256 37.0835H27.7742Z" fill="#161616"/>
<path d="M47.4246 0.431274L50 8.01303L48.3916 15.6791L49.5369 16.546L47.9871 17.7064L49.152 18.5892L47.6096 19.9675L48.5564 20.6404L46.0436 23.5204L35.7369 20.5754L35.6477 20.5285L28.2205 14.3802L47.4246 0.431274ZM2.57539 0.431274L21.7797 14.3802L14.3523 20.5285L14.2631 20.5754L3.95645 23.5204L1.44355 20.6404L2.38965 19.968L0.848242 18.5892L2.01074 17.7073L0.437695 16.5437L1.62617 15.6762L0 8.01342L2.57539 0.431274Z" fill="#763E1A"/>
<path d="M35.2328 19.9314L46.1533 23.0515L49.7012 33.7822H40.341L33.8918 33.8619L38.582 24.8904L35.2328 19.9314ZM14.7672 19.9314L11.4174 24.8904L16.1082 33.8619L9.66192 33.7822H0.318558L3.84649 23.0517L14.7672 19.9314ZM31.9109 6.34644L28.8564 14.4422L28.2082 25.3787L27.9602 28.8067L27.9404 37.5636H22.0594L22.0402 28.8232L21.7914 25.3759L21.143 14.4422L18.0889 6.34644H31.9109Z" fill="#F5841F"/>
</g>
<defs>
<clipPath id="clip0_7_343">
<rect width="50" height="46" fill="white"/>
</clipPath>
</defs>
</svg>
